<svg width="21" height="20" viewBox="0 0 21 20" fill="none" xmlns="http://www.w3.org/2000/svg">
<path d="M20.4446 9.99C20.4446 4.475 15.9646 0 10.4446 0C4.92458 0 0.44458 4.475 0.44458 9.99C0.44458 13.0275 1.82458 15.765 3.98458 17.6025C4.00458 17.6225 4.02458 17.6225 4.02458 17.6425C4.20458 17.7825 4.38458 17.9225 4.58458 18.0625C4.68458 18.1225 4.76458 18.2013 4.86458 18.2812C6.51783 19.4003 8.4682 19.9989 10.4646 20C12.461 19.9989 14.4113 19.4003 16.0646 18.2812C16.1646 18.2213 16.2446 18.1425 16.3446 18.0812C16.5246 17.9425 16.7246 17.8025 16.9046 17.6625C16.9246 17.6425 16.9446 17.6425 16.9446 17.6225C19.0646 15.7637 20.4446 13.0275 20.4446 9.99ZM10.4446 18.7412C8.56458 18.7412 6.84458 18.1413 5.42458 17.1425C5.44458 16.9825 5.48458 16.8237 5.52458 16.6637C5.64415 16.2303 5.81891 15.8139 6.04458 15.425C6.26458 15.045 6.52458 14.705 6.84458 14.405C7.14458 14.105 7.50458 13.8263 7.86458 13.6063C8.24458 13.3863 8.64458 13.2262 9.08458 13.1062C9.52815 12.9874 9.98538 12.9274 10.4446 12.9275C11.808 12.9172 13.1215 13.4402 14.1046 14.385C14.5646 14.845 14.9246 15.3846 15.1846 16.0037C15.3246 16.3638 15.4246 16.7433 15.4846 17.1425C14.0086 18.1802 12.2489 18.7384 10.4446 18.7412ZM7.38458 9.49125C7.20872 9.08766 7.12012 8.65147 7.12458 8.21125C7.12458 7.7725 7.20458 7.3325 7.38458 6.9325C7.56458 6.5325 7.80458 6.17375 8.10458 5.87375C8.40458 5.57375 8.76458 5.335 9.16458 5.155C9.56458 4.975 10.0046 4.895 10.4446 4.895C10.9046 4.895 11.3246 4.975 11.7246 5.155C12.1246 5.335 12.4846 5.575 12.7846 5.87375C13.0846 6.17375 13.3246 6.53375 13.5046 6.9325C13.6846 7.3325 13.7646 7.7725 13.7646 8.21125C13.7646 8.67125 13.6846 9.09125 13.5046 9.49C13.3319 9.88463 13.0878 10.244 12.7846 10.55C12.4785 10.8527 12.1191 11.0964 11.7246 11.2688C10.898 11.6077 9.97118 11.6077 9.14458 11.2688C8.75005 11.0964 8.3907 10.8527 8.08458 10.55C7.78114 10.2483 7.54288 9.88878 7.38458 9.49125ZM16.6646 16.1238C16.6646 16.0837 16.6446 16.0638 16.6446 16.0238C16.4482 15.3979 16.1583 14.8053 15.7846 14.2663C15.4106 13.7232 14.9513 13.2441 14.4246 12.8475C14.0222 12.5447 13.5859 12.2896 13.1246 12.0875C13.3335 11.9478 13.5278 11.7874 13.7046 11.6087C14.0028 11.3144 14.2646 10.9854 14.4846 10.6287C14.929 9.90167 15.1579 9.06332 15.1446 8.21125C15.1511 7.58061 15.0286 6.9553 14.7846 6.37375C14.544 5.81331 14.1976 5.30447 13.7646 4.875C13.3311 4.45131 12.8224 4.11218 12.2646 3.875C11.6822 3.63107 11.056 3.50898 10.4246 3.51625C9.7931 3.50937 9.1669 3.63189 8.58458 3.87625C8.02063 4.11054 7.51028 4.45716 7.08458 4.895C6.65868 5.32621 6.31924 5.83494 6.08458 6.39375C5.84055 6.9753 5.71804 7.60061 5.72458 8.23125C5.72458 8.67125 5.78458 9.09083 5.90458 9.49C6.02458 9.91 6.18458 10.29 6.40458 10.6488C6.60458 11.0087 6.88458 11.3288 7.18458 11.6288C7.36458 11.8088 7.56458 11.9683 7.78458 12.1075C7.3212 12.3138 6.88466 12.5757 6.48458 12.8875C5.96458 13.2875 5.50458 13.7662 5.12458 14.2863C4.74742 14.8233 4.4572 15.4164 4.26458 16.0438C4.24458 16.0837 4.24458 16.1238 4.24458 16.1437C2.66458 14.545 1.68458 12.3875 1.68458 9.99C1.68458 5.175 5.62458 1.23875 10.4446 1.23875C15.2646 1.23875 19.2046 5.175 19.2046 9.99C19.202 12.2899 18.2887 14.4953 16.6646 16.1238Z" fill="black"/>
</svg>
