<svg width="17" height="22" viewBox="0 0 17 22" fill="none" xmlns="http://www.w3.org/2000/svg">
<path d="M2.24014 21C1.72828 21 1.30125 20.8289 0.959024 20.4867C0.616802 20.1444 0.445321 19.7174 0.44458 19.2056V7.23889C0.44458 6.72778 0.616061 6.30111 0.959024 5.95889C1.30199 5.61667 1.72902 5.44518 2.24014 5.44444H4.33347V4.88889C4.33347 3.80889 4.71162 2.89074 5.46791 2.13444C6.22421 1.37815 7.14236 1 8.22236 1C9.30236 1 10.2205 1.37815 10.9768 2.13444C11.7331 2.89074 12.1112 3.80889 12.1112 4.88889V5.44444H14.2057C14.7168 5.44444 15.1435 5.61593 15.4857 5.95889C15.8279 6.30185 15.9994 6.72889 16.0001 7.24V19.2056C16.0001 19.7167 15.8287 20.1437 15.4857 20.4867C15.1427 20.8296 14.7161 21.0007 14.2057 21H2.24014ZM2.24014 19.8889H14.2057C14.3761 19.8889 14.5327 19.8178 14.6757 19.6756C14.8187 19.5333 14.8898 19.3763 14.889 19.2044V7.24C14.889 7.06889 14.8179 6.91185 14.6757 6.76889C14.5335 6.62593 14.3764 6.55481 14.2046 6.55556H12.1112V9.33333C12.1112 9.49185 12.0583 9.62407 11.9524 9.73C11.8464 9.83593 11.7142 9.88889 11.5557 9.88889C11.3972 9.88889 11.2649 9.83593 11.159 9.73C11.0531 9.62407 11.0001 9.49185 11.0001 9.33333V6.55556H5.44458V9.33333C5.44458 9.49185 5.39162 9.62407 5.28569 9.73C5.17976 9.83593 5.04754 9.88889 4.88902 9.88889C4.73051 9.88889 4.59828 9.83593 4.49236 9.73C4.38643 9.62407 4.33347 9.49185 4.33347 9.33333V6.55556H2.24014C2.06902 6.55556 1.91199 6.62667 1.76902 6.76889C1.62606 6.91111 1.55495 7.06815 1.55569 7.24V19.2056C1.55569 19.3759 1.6268 19.5326 1.76902 19.6756C1.91125 19.8185 2.06791 19.8896 2.23902 19.8889M5.44458 5.44444H11.0001V4.88889C11.0001 4.10667 10.7327 3.44815 10.1979 2.91333C9.6631 2.37852 9.00458 2.11111 8.22236 2.11111C7.44013 2.11111 6.78162 2.37852 6.2468 2.91333C5.71199 3.44815 5.44458 4.10667 5.44458 4.88889V5.44444Z" fill="black"/>
<path d="M2.24014 19.8889H14.2057C14.3761 19.8889 14.5327 19.8178 14.6757 19.6756C14.8187 19.5333 14.8898 19.3763 14.889 19.2044V7.24C14.889 7.06889 14.8179 6.91185 14.6757 6.76889C14.5335 6.62593 14.3764 6.55481 14.2046 6.55556H12.1112V9.33333C12.1112 9.49185 12.0583 9.62407 11.9524 9.73C11.8464 9.83593 11.7142 9.88889 11.5557 9.88889C11.3972 9.88889 11.2649 9.83593 11.159 9.73C11.0531 9.62407 11.0001 9.49185 11.0001 9.33333V6.55556H5.44458V9.33333C5.44458 9.49185 5.39162 9.62407 5.28569 9.73C5.17976 9.83593 5.04754 9.88889 4.88902 9.88889C4.73051 9.88889 4.59828 9.83593 4.49236 9.73C4.38643 9.62407 4.33347 9.49185 4.33347 9.33333V6.55556H2.24014C2.06902 6.55556 1.91199 6.62667 1.76902 6.76889C1.62606 6.91111 1.55495 7.06815 1.55569 7.24V19.2056C1.55569 19.3759 1.6268 19.5326 1.76902 19.6756C1.91125 19.8185 2.06791 19.8896 2.23902 19.8889M1.55569 19.8889V6.55556M2.24014 21C1.72828 21 1.30125 20.8289 0.959024 20.4867C0.616802 20.1444 0.445321 19.7174 0.44458 19.2056V7.23889C0.44458 6.72778 0.616061 6.30111 0.959024 5.95889C1.30199 5.61667 1.72902 5.44518 2.24014 5.44444H4.33347V4.88889C4.33347 3.80889 4.71162 2.89074 5.46791 2.13444C6.22421 1.37815 7.14236 1 8.22236 1C9.30236 1 10.2205 1.37815 10.9768 2.13444C11.7331 2.89074 12.1112 3.80889 12.1112 4.88889V5.44444H14.2057C14.7168 5.44444 15.1435 5.61593 15.4857 5.95889C15.8279 6.30185 15.9994 6.72889 16.0001 7.24V19.2056C16.0001 19.7167 15.8287 20.1437 15.4857 20.4867C15.1427 20.8296 14.7161 21.0007 14.2057 21H2.24014ZM5.44458 5.44444H11.0001V4.88889C11.0001 4.10667 10.7327 3.44815 10.1979 2.91333C9.6631 2.37852 9.00458 2.11111 8.22236 2.11111C7.44013 2.11111 6.78162 2.37852 6.2468 2.91333C5.71199 3.44815 5.44458 4.10667 5.44458 4.88889V5.44444Z" stroke="black" stroke-width="0.4"/>
</svg>
