<svg width="446" height="387" viewBox="0 0 446 387" fill="none" xmlns="http://www.w3.org/2000/svg">
<g filter="url(#filter0_i_255_2)">
<path fill-rule="evenodd" clip-rule="evenodd" d="M0 96.7033C0 43.2955 43.2955 0 96.7033 0H99.0476C152.455 0 195.751 43.2955 195.751 96.7033C195.751 97.4312 195.743 98.1573 195.727 98.8813C203.906 97.4498 212.32 96.7034 220.908 96.7034H224.425C233.014 96.7034 241.428 97.4498 249.606 98.8813C249.59 98.1573 249.582 97.4312 249.582 96.7033C249.582 43.2955 292.878 0 346.286 0H348.63C402.038 0 445.333 43.2955 445.333 96.7033C445.333 145.938 408.54 186.579 360.949 192.629C366.471 207.972 369.48 224.514 369.48 241.758C369.48 321.87 304.537 386.813 224.425 386.813H220.908C140.797 386.813 75.8535 321.87 75.8535 241.758C75.8535 224.514 78.8627 207.972 84.3846 192.629C36.7937 186.579 0 145.938 0 96.7033Z" fill="white" fill-opacity="0.01"/>
</g>
<defs>
<filter id="filter0_i_255_2" x="0" y="0" width="445.333" height="390.813" filterUnits="userSpaceOnUse" color-interpolation-filters="sRGB">
<feFlood flood-opacity="0" result="BackgroundImageFix"/>
<feBlend mode="normal" in="SourceGraphic" in2="BackgroundImageFix" result="shape"/>
<feColorMatrix in="SourceAlpha" type="matrix" values="0 0 0 0 0 0 0 0 0 0 0 0 0 0 0 0 0 0 127 0" result="hardAlpha"/>
<feOffset dy="4"/>
<feGaussianBlur stdDeviation="4"/>
<feComposite in2="hardAlpha" operator="arithmetic" k2="-1" k3="1"/>
<feColorMatrix type="matrix" values="0 0 0 0 0 0 0 0 0 0 0 0 0 0 0 0 0 0 0.25 0"/>
<feBlend mode="normal" in2="shape" result="effect1_innerShadow_255_2"/>
</filter>
</defs>
</svg>
