<svg width="19" height="20" viewBox="0 0 19 20" fill="none" xmlns="http://www.w3.org/2000/svg">
<path d="M9.33337 6.75C8.47142 6.75 7.64477 7.09241 7.03528 7.7019C6.42578 8.3114 6.08337 9.13805 6.08337 10C6.08337 10.862 6.42578 11.6886 7.03528 12.2981C7.64477 12.9076 8.47142 13.25 9.33337 13.25C10.1953 13.25 11.022 12.9076 11.6315 12.2981C12.241 11.6886 12.5834 10.862 12.5834 10C12.5834 9.13805 12.241 8.3114 11.6315 7.7019C11.022 7.09241 10.1953 6.75 9.33337 6.75Z" fill="black"/>
<path fill-rule="evenodd" clip-rule="evenodd" d="M4.10337 1.08177C7.57941 0.696701 11.0873 0.696701 14.5634 1.08177C16.4624 1.29377 17.9934 2.78877 18.2164 4.69477C18.6283 8.21944 18.6283 11.7801 18.2164 15.3048C17.9934 17.2108 16.4624 18.7058 14.5644 18.9188C11.088 19.3039 7.57974 19.3039 4.10337 18.9188C2.20437 18.7058 0.673371 17.2108 0.450371 15.3058C0.038353 11.7808 0.038353 8.21977 0.450371 4.69477C0.673371 2.78877 2.20437 1.29377 4.10337 1.08177ZM14.3334 3.99977C14.0682 3.99977 13.8138 4.10513 13.6263 4.29267C13.4387 4.4802 13.3334 4.73456 13.3334 4.99977C13.3334 5.26499 13.4387 5.51934 13.6263 5.70688C13.8138 5.89441 14.0682 5.99977 14.3334 5.99977C14.5986 5.99977 14.8529 5.89441 15.0405 5.70688C15.228 5.51934 15.3334 5.26499 15.3334 4.99977C15.3334 4.73456 15.228 4.4802 15.0405 4.29267C14.8529 4.10513 14.5986 3.99977 14.3334 3.99977ZM4.58337 9.99977C4.58337 8.73999 5.08382 7.53181 5.97461 6.64102C6.86541 5.75022 8.07359 5.24977 9.33337 5.24977C10.5931 5.24977 11.8013 5.75022 12.6921 6.64102C13.5829 7.53181 14.0834 8.73999 14.0834 9.99977C14.0834 11.2596 13.5829 12.4677 12.6921 13.3585C11.8013 14.2493 10.5931 14.7498 9.33337 14.7498C8.07359 14.7498 6.86541 14.2493 5.97461 13.3585C5.08382 12.4677 4.58337 11.2596 4.58337 9.99977Z" fill="black"/>
</svg>
