<svg width="22" height="20" viewBox="0 0 22 20" fill="none" xmlns="http://www.w3.org/2000/svg">
<path d="M11.3334 0C17.1334 0 21.8344 3.664 21.8344 8.185C21.8344 12.705 17.1334 16.369 11.3344 16.369C10.757 16.368 10.1802 16.3312 9.60735 16.259L5.19935 19.142C4.69835 19.407 4.52135 19.378 4.72735 18.729L5.61935 15.051C2.73935 13.591 0.834351 11.061 0.834351 8.185C0.834351 3.665 5.53435 0 11.3344 0M17.2424 8.06L18.7124 6.636C18.7972 6.54791 18.8445 6.43033 18.8443 6.30804C18.8442 6.18575 18.7966 6.0683 18.7116 5.98041C18.6265 5.89252 18.5107 5.84107 18.3885 5.83689C18.2663 5.83271 18.1472 5.87613 18.0564 5.958L16.1284 7.824V6.282C16.1284 6.15682 16.0786 6.03676 15.9901 5.94825C15.9016 5.85973 15.7815 5.81 15.6564 5.81C15.5312 5.81 15.4111 5.85973 15.3226 5.94825C15.2341 6.03676 15.1844 6.15682 15.1844 6.282V8.839C15.1677 8.91206 15.1677 8.98794 15.1844 9.061V10.5C15.1844 10.6252 15.2341 10.7452 15.3226 10.8338C15.4111 10.9223 15.5312 10.972 15.6564 10.972C15.7815 10.972 15.9016 10.9223 15.9901 10.8338C16.0786 10.7452 16.1284 10.6252 16.1284 10.5V9.137L16.5554 8.724L17.9834 10.757C18.019 10.8078 18.0643 10.851 18.1167 10.8842C18.169 10.9175 18.2274 10.9401 18.2885 10.9508C18.3496 10.9615 18.4122 10.96 18.4728 10.9465C18.5333 10.933 18.5906 10.9077 18.6414 10.872C18.6921 10.8363 18.7353 10.791 18.7686 10.7387C18.8018 10.6863 18.8244 10.6279 18.8351 10.5668C18.8458 10.5057 18.8443 10.4431 18.8308 10.3826C18.8173 10.322 18.792 10.2648 18.7564 10.214L17.2424 8.06ZM14.2844 9.984H12.8244V6.297C12.8188 6.17571 12.7666 6.06123 12.6788 5.97737C12.591 5.89351 12.4743 5.84672 12.3528 5.84672C12.2314 5.84672 12.1147 5.89351 12.0269 5.97737C11.9391 6.06123 11.8869 6.17571 11.8814 6.297V10.456C11.8814 10.716 12.0914 10.928 12.3524 10.928H14.2844C14.4095 10.928 14.5296 10.8783 14.6181 10.7898C14.7066 10.7012 14.7564 10.5812 14.7564 10.456C14.7564 10.3308 14.7066 10.2108 14.6181 10.1222C14.5296 10.0337 14.4095 9.984 14.2844 9.984ZM8.42735 8.893L9.12335 7.185L9.76135 8.892L8.42735 8.893ZM10.9503 9.38L10.9524 9.364C10.952 9.24511 10.9066 9.13076 10.8253 9.044L9.77935 6.244C9.7355 6.11057 9.65198 5.99369 9.53994 5.90899C9.4279 5.8243 9.29268 5.7758 9.15235 5.77C9.01112 5.76994 8.87317 5.81259 8.75662 5.89237C8.64008 5.97215 8.5504 6.08531 8.49935 6.217L6.83735 10.292C6.79001 10.4079 6.79065 10.5379 6.83913 10.6533C6.8876 10.7687 6.97995 10.8602 7.09585 10.9075C7.21175 10.9548 7.34171 10.9542 7.45714 10.9057C7.57257 10.8572 7.66401 10.7649 7.71135 10.649L8.04335 9.836H10.1133L10.4114 10.636C10.4317 10.6958 10.4638 10.7509 10.5058 10.7981C10.5478 10.8452 10.5989 10.8835 10.6559 10.9105C10.713 10.9376 10.7749 10.9529 10.838 10.9557C10.9011 10.9584 10.9641 10.9484 11.0233 10.9263C11.0825 10.9042 11.1366 10.8704 11.1825 10.8271C11.2284 10.7837 11.2651 10.7315 11.2905 10.6737C11.3159 10.6158 11.3294 10.5535 11.3302 10.4903C11.331 10.4272 11.3192 10.3645 11.2954 10.306L10.9503 9.38ZM7.62735 6.302C7.62761 6.24003 7.61562 6.17861 7.59205 6.12129C7.56849 6.06397 7.53382 6.01188 7.49005 5.96801C7.44627 5.92414 7.39425 5.88936 7.33698 5.86568C7.27971 5.84199 7.21832 5.82987 7.15635 5.83H3.91135C3.78617 5.83 3.66611 5.87973 3.5776 5.96825C3.48908 6.05676 3.43935 6.17682 3.43935 6.302C3.43935 6.42718 3.48908 6.54724 3.5776 6.63575C3.66611 6.72427 3.78617 6.774 3.91135 6.774H5.07135V10.51C5.07135 10.6352 5.12108 10.7552 5.2096 10.8438C5.29811 10.9323 5.41817 10.982 5.54335 10.982C5.66853 10.982 5.78859 10.9323 5.87711 10.8438C5.96562 10.7552 6.01535 10.6352 6.01535 10.51V6.774H7.15535C7.21741 6.77426 7.2789 6.76224 7.33629 6.73861C7.39367 6.71498 7.44581 6.68023 7.4897 6.63634C7.53358 6.59246 7.56833 6.54032 7.59196 6.48294C7.61559 6.42555 7.62761 6.36406 7.62735 6.302Z" fill="black"/>
</svg>
