<svg width="21" height="18" viewBox="0 0 21 18" fill="none" xmlns="http://www.w3.org/2000/svg">
<path d="M10.4446 3.05387L9.94226 3.53759L9.95156 3.54783L10.4446 3.05387ZM11.812 5.40736C11.8759 5.47591 11.9529 5.53089 12.0385 5.56902C12.1241 5.60715 12.2165 5.62765 12.3101 5.62931C12.4038 5.63096 12.4969 5.61373 12.5837 5.57864C12.6706 5.54355 12.7495 5.49132 12.8158 5.42507C12.882 5.35882 12.9343 5.27991 12.9693 5.19303C13.0044 5.10616 13.0217 5.01311 13.02 4.91943C13.0184 4.82576 12.9979 4.73337 12.9597 4.64779C12.9216 4.56221 12.8666 4.48519 12.7981 4.42131L11.812 5.40736ZM8.05016 14.9813C6.63993 13.8697 5.09853 12.7841 3.87528 11.4074C2.67714 10.0567 1.83993 8.48178 1.83993 6.43713H0.44458C0.44458 8.91713 1.47714 10.8092 2.83249 12.3339C4.16272 13.8315 5.85946 15.0315 7.18598 16.0771L8.05016 14.9813ZM1.83993 6.43713C1.83993 4.43713 2.97016 2.75899 4.51342 2.05294C6.01295 1.36736 8.02784 1.54876 9.94226 3.53759L10.9469 2.57108C8.67714 0.211082 6.039 -0.178686 3.93295 0.784105C1.87342 1.72643 0.44458 3.91434 0.44458 6.43713H1.83993ZM7.18598 16.0771C7.66318 16.4529 8.17481 16.8529 8.69295 17.1562C9.21109 17.4595 9.80272 17.705 10.4446 17.705V16.3097C10.1562 16.3097 9.8176 16.1981 9.39714 15.9515C8.97574 15.706 8.53946 15.3674 8.05016 14.9813L7.18598 16.0771ZM13.7032 16.0771C15.0297 15.0306 16.7264 13.8325 18.0567 12.3339C19.412 10.8083 20.4446 8.91713 20.4446 6.43713H19.0492C19.0492 8.48178 18.212 10.0567 17.0139 11.4074C15.7906 12.7841 14.2492 13.8697 12.839 14.9813L13.7032 16.0771ZM20.4446 6.43713C20.4446 3.91434 19.0167 1.72643 16.9562 0.784105C14.8502 -0.178686 12.2139 0.211082 9.94226 2.57015L10.9469 3.53759C12.8613 1.54969 14.8762 1.36736 16.3757 2.05294C17.919 2.75899 19.0492 4.4362 19.0492 6.43713H20.4446ZM12.839 14.9813C12.3497 15.3674 11.9134 15.706 11.492 15.9515C11.0706 16.1971 10.733 16.3097 10.4446 16.3097V17.705C11.0864 17.705 11.6781 17.4585 12.1962 17.1562C12.7153 16.8529 13.226 16.4529 13.7032 16.0771L12.839 14.9813ZM9.95156 3.54783L11.812 5.40736L12.7981 4.42131L10.9376 2.56085L9.95156 3.54783Z" fill="black"/>
</svg>
